<?xml version="1.0" encoding="UTF-8"?>
<!-- Created with Inkscape (http://www.inkscape.org/) -->
<!-- Screen fill blacked out; see NOTICE.md. -->
<svg width="236" height="338" version="1.1" viewBox="0 0 236 338" xmlns="http://www.w3.org/2000/svg" xmlns:cc="http://creativecommons.org/ns#" xmlns:dc="http://purl.org/dc/elements/1.1/" xmlns:rdf="http://www.w3.org/1999/02/22-rdf-syntax-ns#">
 <metadata>
  <rdf:RDF>
   <cc:Work rdf:about="">
    <dc:format>image/svg+xml</dc:format>
    <dc:type rdf:resource="http://purl.org/dc/dcmitype/StillImage"/>
    <dc:title/>
   </cc:Work>
  </rdf:RDF>
 </metadata>
 <g transform="translate(0 -784.52)">
  <g stroke="#000" stroke-width=".5">
   <path d="m0.50004 953.57c0.039-35.246 12.375-49.875 49.552-93.159 14.325-16.678 10.115-65.174 10.115-65.174s25.583-10.058 52.708-9.9953c27.125 0.062 52.708 10.245 52.708 10.245s-4.2529 48.224 9.9907 64.799c37.301 43.409 49.676 58.231 49.676 93.534s-12.375 49.875-49.676 93.534c-14.197 16.616-9.9907 64.8-9.9907 64.8s-25.583 10.057-52.708 9.9953-52.708-10.245-52.708-10.245 4.0554-48.082-10.115-64.674c-37.177-43.534-49.591-58.413-49.552-93.659z" fill="#1e1e1e"/>
   <circle cx="112.75" cy="953.82" r="112.5" fill="#323232" stroke-linecap="round" stroke-linejoin="bevel"/>
   <path d="m224.78 936.31a15 40 0 0 0-1.5332 17.5 15 40 0 0 0 1.5254 17.5h0.97461c5.54 0 10-3.345 10-7.5v-20c0-4.155-4.46-7.5-10-7.5z" fill="#323232" stroke-linecap="round" stroke-linejoin="bevel"/>
  </g>
  <circle cx="112.75" cy="953.82" r="99.475" fill="#000" stroke="#222" stroke-linecap="round" stroke-linejoin="bevel" stroke-width="18.55"/>
 </g>
</svg>
